<?xml version="1.0" encoding="UTF-8" standalone="no"?>
<!DOCTYPE svg PUBLIC "-//W3C//DTD SVG 1.1//EN" "http://www.w3.org/Graphics/SVG/1.1/DTD/svg11.dtd">
<svg version="1.1" xmlns="http://www.w3.org/2000/svg" xmlns:xlink="http://www.w3.org/1999/xlink" preserveAspectRatio="xMidYMid meet" viewBox="0 0 640 640" width="640" height="640"><defs><path d="M320 0C143.27 0 0 143.27 0 320C0 496.73 143.27 640 320 640C496.73 640 640 496.73 640 320C640 143.27 496.73 0 320 0Z" id="c3Ka412myz"></path><path d="M374.53 192L409.6 192C409.6 155.21 409.6 134.78 409.6 130.69C392.6 128.83 375.5 127.93 358.4 128C307.84 128 273.22 160 273.22 218.24C273.22 221.82 273.22 239.74 273.22 272L217.6 272L217.6 340.22L273.34 340.22L273.34 512L341.76 512L341.76 340.29L395.26 340.29L403.78 272L341.76 272C341.76 243.81 341.76 228.16 341.76 225.02C341.76 205.25 347.07 191.74 374.53 191.74C374.53 191.78 374.53 191.86 374.53 192Z" id="b16ICwl4lq"></path></defs><g><g><g><use xlink:href="#c3Ka412myz" opacity="1" fill="#3d3d4d" fill-opacity="1"></use><g><use xlink:href="#c3Ka412myz" opacity="1" fill-opacity="0" stroke="#000000" stroke-width="1" stroke-opacity="0"></use></g></g><g><use xlink:href="#b16ICwl4lq" opacity="1" fill="#ffffff" fill-opacity="1"></use><g><use xlink:href="#b16ICwl4lq" opacity="1" fill-opacity="0" stroke="#000000" stroke-width="1" stroke-opacity="0"></use></g></g></g></g></svg>