<?xml version="1.0" encoding="UTF-8" standalone="no"?>
<!DOCTYPE svg PUBLIC "-//W3C//DTD SVG 1.1//EN" "http://www.w3.org/Graphics/SVG/1.1/DTD/svg11.dtd">
<svg version="1.1" xmlns="http://www.w3.org/2000/svg" xmlns:xlink="http://www.w3.org/1999/xlink" preserveAspectRatio="xMidYMid meet" viewBox="0 0 640 640" width="640" height="640"><defs><path d="M320 0C143.27 0 0 143.27 0 320C0 496.73 143.27 640 320 640C496.73 640 640 496.73 640 320C640 143.27 496.73 0 320 0Z" id="c1XAJWoDcq"></path><path d="M95.3 392.64C95.3 393.67 94.47 394.5 93.44 394.5C92.41 394.5 91.58 393.67 91.58 392.64C91.36 390.93 90.23 382.4 88.19 367.04C90.23 351.68 91.36 343.15 91.58 341.44C91.58 340.41 92.41 339.58 93.44 339.58C94.47 339.58 95.3 340.41 95.3 341.44C95.56 343.15 96.91 351.68 99.33 367.04C97.18 380.69 95.83 389.23 95.3 392.64ZM112.51 408C112.51 409.06 111.65 409.92 110.59 409.92C109.53 409.92 108.67 409.06 108.67 408C108.37 405.29 106.85 391.72 104.13 367.3C106.85 342.34 108.37 328.47 108.67 325.7C108.73 324.66 109.56 323.84 110.59 323.78C111.64 323.81 112.48 324.65 112.51 325.7C112.86 328.47 114.59 342.34 117.7 367.3C114.93 389 113.2 402.57 112.51 408ZM131.14 414.91C131.07 416.16 130.08 417.15 128.83 417.22C127.55 417.22 126.5 416.19 126.46 414.91C126.18 411.74 124.75 395.89 122.18 367.36C124.75 337.72 126.18 321.25 126.46 317.95C126.5 316.67 127.55 315.65 128.83 315.65C130.08 315.71 131.07 316.71 131.14 317.95C131.46 321.25 133.08 337.72 136 367.36C133.41 392.72 131.78 408.57 131.14 414.91ZM149.89 416.45C149.66 417.95 148.25 418.98 146.75 418.75C145.56 418.57 144.63 417.64 144.45 416.45C144.17 413.18 142.81 396.81 140.35 367.36C142.81 336.91 144.17 319.99 144.45 316.61C144.68 315.11 146.08 314.08 147.59 314.31C148.77 314.49 149.71 315.42 149.89 316.61C150.2 319.99 151.76 336.91 154.56 367.36C152.07 393.54 150.51 409.9 149.89 416.45ZM168.77 416.83C168.73 418.51 167.38 419.87 165.7 419.9C164 419.87 162.63 418.52 162.56 416.83C162.3 413.53 161.02 397.04 158.72 367.36C161.02 338.94 162.3 323.16 162.56 320C162.59 318.29 163.99 316.93 165.7 316.93C167.37 316.93 168.73 318.26 168.77 319.94C169.06 323.08 170.53 338.8 173.18 367.1C170.83 393.63 169.36 410.2 168.77 416.83ZM187.97 416.83C187.97 416.83 187.97 416.83 187.97 416.83C187.97 418.78 186.39 420.35 184.45 420.35C182.5 420.35 180.93 418.78 180.93 416.83C180.69 413.53 179.49 397.04 177.34 367.36C179.49 321.28 180.69 295.68 180.93 290.56C181.02 288.66 182.55 287.14 184.45 287.04C186.36 287.11 187.9 288.64 187.97 290.56C188.24 295.68 189.61 321.28 192.06 367.36L187.97 416.83ZM207.17 416.83C207.17 416.83 207.17 416.83 207.17 416.83C207.1 418.98 205.35 420.7 203.2 420.74C201.08 420.67 199.39 418.95 199.36 416.83C199.13 413.56 198 397.17 195.97 367.68C198 311.19 199.13 279.81 199.36 273.54C199.43 271.44 201.11 269.76 203.2 269.7C205.33 269.73 207.07 271.41 207.17 273.54C207.42 279.81 208.7 311.19 211.01 367.68L207.17 416.83ZM226.43 416C226.43 416 226.43 416 226.43 416C226.43 418.44 224.45 420.42 222.02 420.42C219.58 420.42 217.6 418.44 217.6 416C217.39 412.75 216.35 396.52 214.46 367.3C216.35 306.16 217.39 272.2 217.6 265.41C217.89 263.02 220.06 261.32 222.45 261.61C224.43 261.86 226 263.42 226.24 265.41C226.47 272.2 227.65 306.19 229.76 367.36L226.43 416ZM245.63 415.68C246.56 418.09 245.36 420.79 242.95 421.72C240.54 422.64 237.84 421.44 236.91 419.03C236.54 418.06 236.5 416.99 236.8 416C236.59 412.76 235.52 396.54 233.6 367.36C235.52 304.12 236.59 268.98 236.8 261.95C236.8 259.37 238.89 257.28 241.47 257.28C244.05 257.28 246.14 259.37 246.14 261.95C246.37 268.98 247.48 304.12 249.47 367.36C247.42 393.13 246.14 409.24 245.63 415.68ZM265.28 415.23C265.28 415.23 265.28 415.23 265.28 415.23C265.28 418.02 263.02 420.29 260.22 420.29C257.43 420.29 255.17 418.02 255.17 415.23C254.98 412.04 254.07 396.06 252.42 367.3C254.03 305.86 254.92 271.72 255.1 264.9C254.79 262.09 256.81 259.55 259.62 259.24C262.43 258.92 264.96 260.94 265.28 263.75C265.32 264.13 265.32 264.52 265.28 264.9C265.48 271.72 266.51 305.86 268.35 367.3L265.28 415.23ZM285.12 415.23C285.12 415.23 285.12 415.23 285.12 415.23C285.12 418.27 282.66 420.74 279.62 420.74C276.58 420.74 274.11 418.27 274.11 415.23C273.95 412.05 273.14 396.16 271.68 367.55C273.14 308.19 273.95 275.2 274.11 268.61C274.11 265.57 276.58 263.1 279.62 263.1C282.66 263.1 285.12 265.57 285.12 268.61C285.31 275.2 286.27 308.13 288 367.42L285.12 415.23ZM305.28 410.18C305.28 412.98 305.28 414.54 305.28 414.85C305.28 416.41 304.66 417.91 303.55 419.01C302.44 420.05 300.98 420.67 299.46 420.74C297.71 420.73 296.06 419.93 294.98 418.56C294.12 417.6 293.63 416.38 293.57 415.1C293.57 415.1 293.57 415.1 293.57 415.1L291.33 367.74L293.5 251.14C293.5 250.21 293.5 249.7 293.5 249.6C293.51 247.63 294.52 245.79 296.19 244.74C297.14 244.1 298.25 243.76 299.39 243.78C300.54 243.75 301.67 244.11 302.59 244.8C304.23 245.86 305.23 247.65 305.28 249.6C305.44 257.45 306.25 296.73 307.71 367.42L305.28 410.18ZM324.93 414.27C324.93 414.27 324.93 414.27 324.93 414.27C324.93 417.81 322.06 420.67 318.53 420.67C314.99 420.67 312.13 417.81 312.13 414.27C312.04 412.74 311.62 405.08 310.85 391.3L309.57 367.68L312.13 239.68C312.13 239.3 312.13 239.08 312.13 239.04C312.14 237.16 312.99 235.38 314.43 234.18C315.56 233.27 316.96 232.78 318.4 232.77C319.53 232.76 320.64 233.07 321.6 233.66C323.48 234.81 324.64 236.84 324.67 239.04C324.86 247.6 325.8 290.42 327.49 367.49L324.93 414.27ZM494.53 420.67C399.83 420.67 347.23 420.67 336.7 420.67C333.17 420.67 330.3 417.81 330.3 414.27C330.3 396.13 330.3 250.98 330.3 232.83C330.3 229.5 331.52 227.78 335.81 226.43C347.45 221.93 359.81 219.61 372.29 219.58C424.39 219.49 467.97 259.16 472.77 311.04C501.72 298.82 535.09 312.38 547.31 341.33C559.54 370.28 545.98 403.65 517.03 415.87C509.99 418.84 502.42 420.37 494.78 420.35C494.75 420.39 494.66 420.5 494.53 420.67Z" id="hfNjIW3IW"></path></defs><g><g><g><use xlink:href="#c1XAJWoDcq" opacity="1" fill="#3d3d4d" fill-opacity="1"></use><g><use xlink:href="#c1XAJWoDcq" opacity="1" fill-opacity="0" stroke="#000000" stroke-width="1" stroke-opacity="0"></use></g></g><g><use xlink:href="#hfNjIW3IW" opacity="1" fill="#ffffff" fill-opacity="1"></use><g><use xlink:href="#hfNjIW3IW" opacity="1" fill-opacity="0" stroke="#000000" stroke-width="1" stroke-opacity="0"></use></g></g></g></g></svg>