<?xml version="1.0" encoding="UTF-8" standalone="no"?>
<!DOCTYPE svg PUBLIC "-//W3C//DTD SVG 1.1//EN" "http://www.w3.org/Graphics/SVG/1.1/DTD/svg11.dtd">
<svg version="1.1" xmlns="http://www.w3.org/2000/svg" xmlns:xlink="http://www.w3.org/1999/xlink" preserveAspectRatio="xMidYMid meet" viewBox="0 0 640 640" width="640" height="640"><defs><path d="M320 0C143.27 0 0 143.27 0 320C0 496.73 143.27 640 320 640C496.73 640 640 496.73 640 320C640 143.27 496.73 0 320 0Z" id="a3zfhnsV2M"></path><path d="M231.1 365.44L396.8 400.58L403.2 367.17L238.02 331.78L231.1 365.44Z" id="a2rfiIQx0R"></path><path d="M227.46 409.15L396.8 409.15L396.8 443.14L227.46 443.14L227.46 409.15Z" id="f57MO8JZb1"></path><path d="M252.8 285.31L405.95 357.7L420.16 326.4L266.56 253.82L252.8 285.31Z" id="c677qAacQ"></path><path d="" id="bpyJxVRMq"></path><path d="M160 374.85L160 512L463.87 512L463.87 374.85L430.08 374.85L430.08 477.7L193.79 477.7L193.79 374.85L160 374.85Z" id="b1bLctRX1J"></path><path d="M295.23 209.02L425.02 318.98L446.53 292.61L316.8 182.59L295.23 209.02Z" id="bQqYzPOAc"></path><path d="M480 265.41L379.14 128L352 148.61L452.93 285.95L480 265.41Z" id="cs0qYmLQK"></path></defs><g><g><g><use xlink:href="#a3zfhnsV2M" opacity="1" fill="#3d3d4d" fill-opacity="1"></use><g><use xlink:href="#a3zfhnsV2M" opacity="1" fill-opacity="0" stroke="#000000" stroke-width="1" stroke-opacity="0"></use></g></g><g><use xlink:href="#a2rfiIQx0R" opacity="1" fill="#ffffff" fill-opacity="1"></use><g><use xlink:href="#a2rfiIQx0R" opacity="1" fill-opacity="0" stroke="#000000" stroke-width="1" stroke-opacity="0"></use></g></g><g><use xlink:href="#f57MO8JZb1" opacity="1" fill="#ffffff" fill-opacity="1"></use><g><use xlink:href="#f57MO8JZb1" opacity="1" fill-opacity="0" stroke="#000000" stroke-width="1" stroke-opacity="0"></use></g></g><g><use xlink:href="#c677qAacQ" opacity="1" fill="#ffffff" fill-opacity="1"></use><g><use xlink:href="#c677qAacQ" opacity="1" fill-opacity="0" stroke="#000000" stroke-width="1" stroke-opacity="0"></use></g></g><g><use xlink:href="#bpyJxVRMq" opacity="1" fill="#ffffff" fill-opacity="1"></use><g><use xlink:href="#bpyJxVRMq" opacity="1" fill-opacity="0" stroke="#000000" stroke-width="1" stroke-opacity="0"></use></g></g><g><use xlink:href="#b1bLctRX1J" opacity="1" fill="#ffffff" fill-opacity="1"></use><g><use xlink:href="#b1bLctRX1J" opacity="1" fill-opacity="0" stroke="#000000" stroke-width="1" stroke-opacity="0"></use></g></g><g><use xlink:href="#bQqYzPOAc" opacity="1" fill="#ffffff" fill-opacity="1"></use><g><use xlink:href="#bQqYzPOAc" opacity="1" fill-opacity="0" stroke="#000000" stroke-width="1" stroke-opacity="0"></use></g></g><g><use xlink:href="#cs0qYmLQK" opacity="1" fill="#ffffff" fill-opacity="1"></use><g><use xlink:href="#cs0qYmLQK" opacity="1" fill-opacity="0" stroke="#000000" stroke-width="1" stroke-opacity="0"></use></g></g></g></g></svg>