<?xml version="1.0" encoding="UTF-8" standalone="no"?>
<!DOCTYPE svg PUBLIC "-//W3C//DTD SVG 1.1//EN" "http://www.w3.org/Graphics/SVG/1.1/DTD/svg11.dtd">
<svg version="1.1" xmlns="http://www.w3.org/2000/svg" xmlns:xlink="http://www.w3.org/1999/xlink" preserveAspectRatio="xMidYMid meet" viewBox="0 0 640 640" width="640" height="640"><defs><path d="M0 320C0 496.73 143.27 640 320 640C496.73 640 640 496.73 640 320C640 143.27 496.73 0 320 0C143.27 0 0 143.27 0 320ZM466.11 259.14C466.11 356.16 392.26 468.1 257.15 468.1C257.15 468.1 257.15 468.1 257.15 468.1C217.31 468.11 178.31 456.69 144.77 435.2C150.59 435.84 156.45 436.16 162.3 436.16C195.37 436.23 227.5 425.16 253.5 404.74C222.03 404.13 194.43 383.54 184.9 353.54C189.43 354.4 194.04 354.85 198.66 354.88C205.15 354.88 211.6 354 217.86 352.26C183.58 345.34 158.92 315.23 158.91 280.26C158.88 279.96 158.88 279.66 158.91 279.36C169.09 285.03 180.48 288.16 192.13 288.51C159.9 266.92 149.96 224.03 169.41 190.46C206.7 236.39 261.75 264.31 320.83 267.26C319.54 261.79 318.9 256.18 318.91 250.56C318.94 209.98 351.85 177.11 392.43 177.13C412.71 177.15 432.07 185.54 445.95 200.32C462.48 197.07 478.32 191.01 492.8 182.4C487.39 199.36 476.02 213.8 460.8 223.04C475.29 221.23 489.42 217.24 502.72 211.2C492.92 226.09 480.52 239.1 466.11 249.6C466.11 252.8 466.11 256 466.11 259.14Z" id="i7E4dN93uv"></path></defs><g><g><g><use xlink:href="#i7E4dN93uv" opacity="1" fill="#3d3d4d" fill-opacity="1"></use><g><use xlink:href="#i7E4dN93uv" opacity="1" fill-opacity="0" stroke="#000000" stroke-width="1" stroke-opacity="0"></use></g></g></g></g></svg>