<svg id="Layer_1" data-name="Layer 1" xmlns="http://www.w3.org/2000/svg" viewBox="0 0 100 100"><defs><style>.cls-1{fill:#fff;}</style></defs><circle cx="50" cy="50" r="50"/><path class="cls-1" d="M48.39,80c14.09,0,22.86-10.38,22.86-23.78,0-5-.82-9.61-6.55-11,1.39-3.82,5.42-14.87,5.42-18.41,0-3.11-1.88-5.73-5.22-5.73-5.33,0-10.1,15.44-11.6,19.12C52.14,36.88,46.72,20,42,20c-3.72,0-5.46,2.68-5.46,6.06,0,4.14,4.08,14.86,5.56,19a7.13,7.13,0,0,0-2.39-.5c-2.79,0-5.76,3.41-5.76,6.16a11.63,11.63,0,0,0,1,3.48c-4.4,1.18-6.1,4.06-6.1,8.41C28.74,71.05,36.91,80,48.39,80ZM60.47,32.66C61,31.21,63,25.12,64.9,25.12c1,0,1.3,1,1.3,1.88,0,2.23-4.61,14.6-5.62,17.34l-4.06-.7Zm-20.23-7h0c0-1.4,1.73-5.36,5.53,5.52L49.9,42.93c-1.86-.15-3.31-.35-4.22.17C44.37,39.72,40.24,29.07,40.24,25.66ZM40,48.59h0c3.5,0,8,11.09,8,12.59a1.41,1.41,0,0,1-1.26,1.34c-2.5,0-9.19-9-9.19-11.45A3.38,3.38,0,0,1,40,48.59Zm-4,9.18c1.36,0,6.48,7.07,6.48,8.57,0,.57-.92,1-1.4,1-1.92,0-2.67-1.82-6.1-6-3.54,3.49,2.45,10.19,7,10.19,3.11,0,5.14-2.84,4.53-4.92a6.45,6.45,0,0,0,1.4-.07c.13,3.17,1.09,7,5,7.23,0-.11.24-.84.24-.87,0-2-1.26-3.82-1.26-5.9,0-3.31,2.59-6.52,5.21-8.4A12.34,12.34,0,0,1,60.24,57a9.19,9.19,0,0,0,3.27-1.81c-.13-1.31-.68-2.47-2-2.47-3.31,0-14.4.47-14.4-4.66,0-.78,0-1.53,2.08-1.53,3.86,0,13.65.94,16.52,3.41,2.16,1.89,2.9,13.26-3.71,20.47h0a17.3,17.3,0,0,1-13.1,5.7,16.05,16.05,0,0,1-15.4-10.35c-2-5.08.46-8,2.47-8ZM50.2,55.66a32.28,32.28,0,0,0,3.55.7,15.52,15.52,0,0,0-2.43,2.24c-.33-1-.74-2-1.12-2.94Z"/></svg>