<?xml version="1.0" encoding="UTF-8" standalone="no"?>
<!DOCTYPE svg PUBLIC "-//W3C//DTD SVG 1.1//EN" "http://www.w3.org/Graphics/SVG/1.1/DTD/svg11.dtd">
<svg version="1.1" xmlns="http://www.w3.org/2000/svg" xmlns:xlink="http://www.w3.org/1999/xlink" preserveAspectRatio="xMidYMid meet" viewBox="0 0 640 640" width="640" height="640"><defs><path d="M320 0C143.27 0 0 143.27 0 320C0 496.73 143.27 640 320 640C496.73 640 640 496.73 640 320C640 143.27 496.73 0 320 0Z" id="a7iL0KrD4S"></path><path d="M456 359.81C456 327.81 450.75 298.3 414.08 289.41C422.98 264.96 448.77 194.24 448.77 171.58C448.77 151.68 436.74 134.91 415.36 134.91C381.25 134.91 350.72 233.73 341.12 257.28C333.7 236.03 299.01 128 268.8 128C244.99 128 233.86 145.15 233.86 166.78C233.86 193.28 259.97 261.89 269.44 288.38C264.56 286.45 259.39 285.36 254.14 285.18C236.29 285.18 217.28 307.01 217.28 324.61C218.24 332.32 220.4 339.84 223.68 346.88C195.52 354.43 184.64 372.86 184.64 400.7C183.94 454.72 236.22 512 309.7 512C399.87 512 456 445.57 456 359.81ZM387.01 209.02C390.4 199.74 403.2 160.77 415.36 160.77C421.76 160.77 423.68 167.17 423.68 172.8C423.68 187.07 394.18 266.24 387.71 283.78C385.98 283.48 377.32 281.98 361.73 279.3C375.21 241.82 383.64 218.39 387.01 209.02ZM257.54 164.22C257.54 155.26 268.61 129.92 292.93 199.55C295.57 207.07 316.72 267.23 319.36 274.75C307.46 273.79 298.18 272.51 292.35 275.84C283.97 254.21 257.54 186.05 257.54 164.22C257.54 164.22 257.54 164.22 257.54 164.22ZM256 310.98C278.4 310.98 307.2 381.95 307.2 391.55C307 396.01 303.58 399.66 299.14 400.13C283.14 400.13 240.32 342.53 240.32 326.85C242.2 319.06 248.24 312.96 256 310.98C256 310.98 256 310.98 256 310.98ZM230.4 369.73C239.1 369.73 271.87 414.98 271.87 424.58C271.87 428.22 265.98 430.98 262.91 430.98C250.62 430.98 245.82 419.33 223.87 392.58C201.22 414.91 239.55 457.79 268.67 457.79C288.58 457.79 301.57 439.62 297.66 426.3C300.66 426.48 303.66 426.33 306.62 425.86C307.46 446.14 313.6 470.66 338.62 472.13C338.62 471.42 340.16 466.75 340.16 466.56C340.16 453.76 332.1 442.11 332.1 428.8C332.1 407.62 348.67 387.07 365.44 375.04C371.61 370.68 378.38 367.23 385.54 364.8C393.23 362.41 400.36 358.47 406.46 353.22C405.63 344.83 402.11 337.41 393.66 337.41C372.48 337.41 301.5 340.42 301.5 307.58C301.5 302.59 301.5 297.79 314.82 297.79C339.52 297.79 402.18 303.81 420.54 319.62C434.37 331.71 439.1 404.48 396.8 450.62C396.8 450.62 396.8 450.62 396.8 450.62C375.41 474.29 344.86 487.59 312.96 487.1C269.38 488.18 229.87 461.62 214.4 420.86C201.6 388.35 217.34 369.66 230.21 369.66C230.25 369.68 230.36 369.72 230.4 369.73ZM344 360.7C338.32 364.92 333.11 369.72 328.45 375.04C326.34 368.64 323.71 362.24 321.28 356.22C328.76 358.14 336.35 359.64 344 360.7Z" id="aMAyPIvil"></path></defs><g><g><g><use xlink:href="#a7iL0KrD4S" opacity="1" fill="#3d3d4d" fill-opacity="1"></use><g><use xlink:href="#a7iL0KrD4S" opacity="1" fill-opacity="0" stroke="#000000" stroke-width="1" stroke-opacity="0"></use></g></g><g><use xlink:href="#aMAyPIvil" opacity="1" fill="#ffffff" fill-opacity="1"></use><g><use xlink:href="#aMAyPIvil" opacity="1" fill-opacity="0" stroke="#000000" stroke-width="1" stroke-opacity="0"></use></g></g></g></g></svg>