<?xml version="1.0" encoding="UTF-8" standalone="no"?>
<!DOCTYPE svg PUBLIC "-//W3C//DTD SVG 1.1//EN" "http://www.w3.org/Graphics/SVG/1.1/DTD/svg11.dtd">
<svg version="1.1" xmlns="http://www.w3.org/2000/svg" xmlns:xlink="http://www.w3.org/1999/xlink" preserveAspectRatio="xMidYMid meet" viewBox="0 0 640 640" width="640" height="640"><defs><path d="M-0.58 325.82C-0.83 468.26 93.08 593.72 229.82 633.6C236.34 631.68 240.73 625.6 240.51 618.82C240.51 611.33 240.51 591.49 240.13 565.18C150.53 584.38 132.03 522.88 132.03 522.88C117.44 486.53 96.32 476.8 96.32 476.8C67.26 457.22 98.56 457.6 98.56 457.6C130.56 459.84 147.71 490.11 147.71 490.11C176.32 538.3 222.85 524.42 241.15 516.35C242.59 500.29 249.83 485.3 261.5 474.18C190.21 466.24 115.2 439.1 115.2 318.34C114.74 286.9 126.59 256.54 148.22 233.73C144.64 225.73 133.82 193.66 151.04 150.53C151.04 150.53 177.92 142.08 239.3 182.85C291.82 168.68 347.16 168.68 399.68 182.85C460.8 141.82 487.68 150.27 487.68 150.27C504.9 193.66 494.08 225.73 490.88 233.47C512.4 256.35 524.19 286.68 523.78 318.08C523.78 439.42 448.77 466.11 377.6 473.6C388.86 483.07 399.3 502.4 399.3 531.9C399.3 574.14 398.91 608 398.91 618.24C398.33 625.49 403.2 632.05 410.3 633.6C579.97 584.12 677.39 406.46 627.91 236.8C588.01 100.02 462.48 6.09 320 6.4C143.27 6.08 -0.26 149.09 -0.58 325.82Z" id="a4G6YzpCnh"></path></defs><g><g><g><use xlink:href="#a4G6YzpCnh" opacity="1" fill="#3d3d4d" fill-opacity="1"></use><g><use xlink:href="#a4G6YzpCnh" opacity="1" fill-opacity="0" stroke="#000000" stroke-width="1" stroke-opacity="0"></use></g></g></g></g></svg>