<?xml version="1.0" encoding="UTF-8" standalone="no"?>
<!DOCTYPE svg PUBLIC "-//W3C//DTD SVG 1.1//EN" "http://www.w3.org/Graphics/SVG/1.1/DTD/svg11.dtd">
<svg version="1.1" xmlns="http://www.w3.org/2000/svg" xmlns:xlink="http://www.w3.org/1999/xlink" preserveAspectRatio="xMidYMid meet" viewBox="0 0 640 640" width="640" height="640"><defs><path d="M320 381.25C286.17 381.25 258.75 353.83 258.75 320C258.75 286.17 286.17 258.75 320 258.75C353.79 258.72 381.21 286.08 381.25 319.87C381.25 319.91 381.25 319.96 381.25 320C381.25 353.83 353.83 381.25 320 381.25Z" id="bPz0PrJtv"></path><path d="M428.35 176.77C417.43 172.71 405.89 170.54 394.24 170.37C375.04 169.47 369.09 169.28 320 169.28C270.91 169.28 265.15 169.28 245.76 170.37C234.11 170.54 222.57 172.71 211.65 176.77C195.63 182.97 182.97 195.63 176.77 211.65C172.68 222.56 170.51 234.1 170.37 245.76C169.47 264.96 169.28 270.91 169.28 320C169.28 369.09 169.28 374.85 170.37 394.24C170.51 405.9 172.68 417.44 176.77 428.35C182.97 444.37 195.63 457.03 211.65 463.23C222.56 467.32 234.1 469.49 245.76 469.63C264.96 470.53 270.91 470.72 320 470.72C369.09 470.72 374.85 470.72 394.24 469.63C405.9 469.49 417.44 467.32 428.35 463.23C444.41 457.1 457.1 444.41 463.23 428.35C467.29 417.43 469.46 405.89 469.63 394.24C470.53 375.04 470.72 369.09 470.72 320C470.72 270.91 470.72 265.15 469.63 245.76C469.49 234.1 467.32 222.56 463.23 211.65C457.03 195.63 444.37 182.97 428.35 176.77ZM225.66 320C225.66 267.9 267.9 225.66 320 225.66C372.1 225.66 414.34 267.9 414.34 320C414.34 372.1 372.1 414.34 320 414.34C267.9 414.34 225.66 372.1 225.66 320ZM395.97 221.95C395.93 209.76 405.79 199.84 417.98 199.81C430.18 199.77 440.09 209.63 440.13 221.82C440.13 221.85 440.13 221.87 440.13 221.89C440.16 234.05 430.34 243.93 418.18 243.97C418.15 243.97 418.13 243.97 418.11 243.97C405.92 244 396 234.15 395.97 221.95Z" id="b4W8gAjmHK"></path><path d="M0 320C0 496.73 143.27 640 320 640C496.73 640 640 496.73 640 320C640 143.27 496.73 0 320 0C143.27 0 0 143.27 0 320ZM494.08 440.58C484.53 465.23 465.04 484.72 440.38 494.27C426.04 499.65 410.9 502.55 395.58 502.85C376 503.74 369.98 503.94 319.81 503.94C269.63 503.94 263.68 503.94 244.03 502.85C228.72 502.55 213.57 499.65 199.23 494.27C174.58 484.72 155.09 465.23 145.54 440.58C140.16 426.24 137.26 411.09 136.96 395.78C136.06 376.19 135.87 370.18 135.87 320C135.87 269.82 135.87 263.81 136.96 244.22C137.26 228.91 140.16 213.76 145.54 199.42C155.09 174.77 174.58 155.28 199.23 145.73C213.57 140.35 228.72 137.45 244.03 137.15C263.62 136.26 269.63 136.06 319.81 136.06C369.98 136.06 376 136.06 395.58 137.15C410.9 137.45 426.04 140.35 440.38 145.73C465.04 155.28 484.53 174.77 494.08 199.42C499.46 213.76 502.36 228.91 502.66 244.22C503.55 263.81 503.74 269.82 503.74 320C503.74 370.18 503.55 376.19 502.66 395.78C502.36 411.09 499.46 426.24 494.08 440.58Z" id="d1GLpc6Q6i"></path></defs><g><g><g><use xlink:href="#bPz0PrJtv" opacity="1" fill="#3d3d4d" fill-opacity="1"></use><g><use xlink:href="#bPz0PrJtv" opacity="1" fill-opacity="0" stroke="#000000" stroke-width="1" stroke-opacity="0"></use></g></g><g><use xlink:href="#b4W8gAjmHK" opacity="1" fill="#3d3d4d" fill-opacity="1"></use><g><use xlink:href="#b4W8gAjmHK" opacity="1" fill-opacity="0" stroke="#000000" stroke-width="1" stroke-opacity="0"></use></g></g><g><use xlink:href="#d1GLpc6Q6i" opacity="1" fill="#3d3d4d" fill-opacity="1"></use><g><use xlink:href="#d1GLpc6Q6i" opacity="1" fill-opacity="0" stroke="#000000" stroke-width="1" stroke-opacity="0"></use></g></g></g></g></svg>