<?xml version="1.0" encoding="UTF-8" standalone="no"?>
<!DOCTYPE svg PUBLIC "-//W3C//DTD SVG 1.1//EN" "http://www.w3.org/Graphics/SVG/1.1/DTD/svg11.dtd">
<svg version="1.1" xmlns="http://www.w3.org/2000/svg" xmlns:xlink="http://www.w3.org/1999/xlink" preserveAspectRatio="xMidYMid meet" viewBox="0 0 640 640" width="640" height="640"><defs><path d="M0 320C0 496.73 143.27 640 320 640C496.73 640 640 496.73 640 320C640 143.27 496.73 0 320 0C143.27 0 0 143.27 0 320ZM227.01 483.78L149.06 483.78L149.06 249.6L227.01 249.6L227.01 483.78ZM187.52 217.6C161.41 217.6 144.45 199.55 144.45 177.09C144.45 154.62 161.92 136.58 188.54 136.58C215.17 136.58 231.62 154.05 232.13 177.09C232.64 200.13 215.23 217.6 188.03 217.6C187.93 217.6 187.57 217.6 187.52 217.6ZM508.03 484.1L430.08 484.1C430.08 408.68 430.08 366.78 430.08 358.4C430.08 326.85 418.82 305.34 390.59 305.34C372.59 305.47 356.6 316.89 350.66 333.89C348.61 340.07 347.74 346.58 348.1 353.09C348.1 361.8 348.1 405.36 348.1 483.78C301.32 483.78 275.34 483.78 270.14 483.78C270.14 483.78 271.17 271.3 270.14 249.28C275.34 249.28 301.32 249.28 348.1 249.28C348.1 269.21 348.1 280.28 348.1 282.5C362.56 257.56 389.7 242.76 418.5 244.1C469.7 244.1 508.1 277.63 508.1 349.63C508.09 367.56 508.07 412.38 508.03 484.1Z" id="b5DzSvnliB"></path></defs><g><g><g><use xlink:href="#b5DzSvnliB" opacity="1" fill="#3d3d4d" fill-opacity="1"></use><g><use xlink:href="#b5DzSvnliB" opacity="1" fill-opacity="0" stroke="#000000" stroke-width="1" stroke-opacity="0"></use></g></g></g></g></svg>