<?xml version="1.0" encoding="UTF-8" standalone="no"?>
<!DOCTYPE svg PUBLIC "-//W3C//DTD SVG 1.1//EN" "http://www.w3.org/Graphics/SVG/1.1/DTD/svg11.dtd">
<svg version="1.1" xmlns="http://www.w3.org/2000/svg" xmlns:xlink="http://www.w3.org/1999/xlink" preserveAspectRatio="xMidYMid meet" viewBox="0 0 640 640" width="640" height="640"><defs><path d="M0 320C0 496.73 143.27 640 320 640C496.73 640 640 496.73 640 320C640 143.27 496.73 0 320 0C143.27 0 0 143.27 0 320Z" id="dbV96beG6"></path><path d="M489.86 371.2C489.86 436.48 413.82 489.41 320.06 489.41C226.3 489.41 150.27 436.54 150.27 371.2C150.29 366.91 150.64 362.64 151.3 358.4C129.91 348.81 120.35 323.71 129.93 302.32C136.77 287.07 151.92 277.25 168.64 277.25C179.58 277.22 190.1 281.47 197.95 289.09C231.95 265.97 272.04 253.46 313.15 253.12C313.15 252.54 334.34 151.62 334.34 151.62C334.77 149.66 335.94 147.94 337.6 146.82C339.29 145.75 341.34 145.38 343.3 145.79C350.34 147.3 406.66 159.33 413.7 160.83C421.13 145.9 439.27 139.82 454.2 147.26C469.14 154.7 475.21 172.83 467.78 187.76C460.34 202.7 442.2 208.78 427.27 201.34C417.46 196.45 411.06 186.63 410.56 175.68C406.35 174.78 385.32 170.28 347.46 162.18C335.94 216.78 329.54 247.12 328.26 253.18C368.79 253.83 408.25 266.36 441.73 289.22C458.31 272.71 485.13 272.76 501.65 289.34C509.74 297.47 514.19 308.53 513.98 320C513.78 336.6 503.97 351.58 488.83 358.4C489.5 362.63 489.84 366.91 489.86 371.2Z" id="b5xCmRSOPI"></path><path d="M320.06 436.67C300.16 436.67 272.26 432 259.2 419.01C255.92 416.15 250.95 416.5 248.09 419.77C245.52 422.72 245.51 427.11 248.06 430.08C268.8 450.75 308.42 452.42 320 452.42C331.58 452.42 371.2 450.75 392 430.08C395 427 395 422.09 392 419.01C389.01 415.95 384.11 415.9 381.05 418.89C381.01 418.93 380.97 418.97 380.93 419.01C368.13 431.81 339.97 436.67 320.06 436.67Z" id="f4SHIBeXQn"></path><path d="M253.31 319.68C236.56 319.68 222.98 333.26 222.98 350.02C222.98 366.77 236.56 380.35 253.31 380.35C270.05 380.32 283.61 366.76 283.65 350.02C283.65 333.26 270.07 319.68 253.31 319.68Z" id="b4cwIgiP5"></path><path d="M356.35 350.34C356.35 367.09 369.93 380.67 386.69 380.67C403.44 380.67 417.02 367.09 417.02 350.34C417.02 350.34 417.02 350.34 417.02 350.34C417.02 333.58 403.44 320 386.69 320C369.93 320 356.35 333.58 356.35 350.34Z" id="c2iuHmbTxS"></path></defs><g><g><g><use xlink:href="#dbV96beG6" opacity="1" fill="#3d3d4d" fill-opacity="1"></use><g><use xlink:href="#dbV96beG6" opacity="1" fill-opacity="0" stroke="#000000" stroke-width="1" stroke-opacity="0"></use></g></g><g><use xlink:href="#b5xCmRSOPI" opacity="1" fill="#ffffff" fill-opacity="1"></use><g><use xlink:href="#b5xCmRSOPI" opacity="1" fill-opacity="0" stroke="#000000" stroke-width="1" stroke-opacity="0"></use></g></g><g><use xlink:href="#f4SHIBeXQn" opacity="1" fill="#3d3d4d" fill-opacity="1"></use><g><use xlink:href="#f4SHIBeXQn" opacity="1" fill-opacity="0" stroke="#000000" stroke-width="1" stroke-opacity="0"></use></g></g><g><use xlink:href="#b4cwIgiP5" opacity="1" fill="#3d3d4d" fill-opacity="1"></use><g><use xlink:href="#b4cwIgiP5" opacity="1" fill-opacity="0" stroke="#000000" stroke-width="1" stroke-opacity="0"></use></g></g><g><use xlink:href="#c2iuHmbTxS" opacity="1" fill="#3d3d4d" fill-opacity="1"></use><g><use xlink:href="#c2iuHmbTxS" opacity="1" fill-opacity="0" stroke="#000000" stroke-width="1" stroke-opacity="0"></use></g></g></g></g></svg>