<?xml version="1.0" encoding="UTF-8" standalone="no"?>
<!DOCTYPE svg PUBLIC "-//W3C//DTD SVG 1.1//EN" "http://www.w3.org/Graphics/SVG/1.1/DTD/svg11.dtd">
<svg version="1.1" xmlns="http://www.w3.org/2000/svg" xmlns:xlink="http://www.w3.org/1999/xlink" preserveAspectRatio="xMidYMid meet" viewBox="0 0 640 640" width="640" height="640"><defs><path d="M640 320C640 143.27 496.73 0 320 0C143.27 0 0 143.27 0 320C0 496.73 143.27 640 320 640C496.73 640 640 496.73 640 320ZM449.92 470.85C428.42 470.85 360.32 395.46 169.41 434.56C164.41 436.19 159.27 437.33 154.05 437.95C129.6 437.95 124.93 401.41 151.17 395.84C256.9 372.54 364.8 374.59 456.96 429.7C478.98 443.71 469.76 470.85 449.92 470.85C449.92 470.85 449.92 470.85 449.92 470.85ZM468.74 380.8C388.1 332.8 267.84 313.6 160.9 342.85C155.97 344.73 150.79 345.87 145.54 346.24C116.93 346.24 109.38 303.23 140.48 294.46C266.24 259.14 401.15 279.74 495.1 335.62C504.62 340.5 510.34 350.54 509.7 361.22C509.66 375.02 498.48 386.2 484.67 386.24C481.66 385.41 482.56 388.03 468.74 380.8ZM538.24 228.67C567.04 245.44 555.58 288 524.8 288C524.8 288 524.8 288 524.8 288C518.87 288.03 513.07 286.27 508.16 282.94C416.32 228.1 252.16 214.98 145.73 244.54C140.36 246.41 134.76 247.53 129.09 247.87C112.62 248.12 99.07 234.97 98.82 218.5C98.81 218.2 98.81 217.9 98.82 217.6C98.11 203.18 107.63 190.25 121.6 186.62C242.24 151.3 424.77 162.43 538.24 228.67Z" id="a6zvf1qfEH"></path></defs><g><g><g><use xlink:href="#a6zvf1qfEH" opacity="1" fill="#3d3d4d" fill-opacity="1"></use><g><use xlink:href="#a6zvf1qfEH" opacity="1" fill-opacity="0" stroke="#000000" stroke-width="1" stroke-opacity="0"></use></g></g></g></g></svg>