<?xml version="1.0" encoding="UTF-8" standalone="no"?>
<!DOCTYPE svg PUBLIC "-//W3C//DTD SVG 1.1//EN" "http://www.w3.org/Graphics/SVG/1.1/DTD/svg11.dtd">
<svg version="1.1" xmlns="http://www.w3.org/2000/svg" xmlns:xlink="http://www.w3.org/1999/xlink" preserveAspectRatio="xMidYMid meet" viewBox="0 0 640 640" width="640" height="640"><defs><path d="M320 0C143.27 0 0 143.27 0 320C0 496.73 143.27 640 320 640C496.73 640 640 496.73 640 320C640 143.27 496.73 0 320 0Z" id="b1EN8jqD6K"></path><path d="M266.69 159.62C266.69 159.62 266.69 159.62 266.69 159.62C266.69 223.63 266.69 259.19 266.69 266.3C266.69 266.3 266.69 266.3 266.69 266.3C202.68 266.3 167.11 266.3 160 266.3C160 266.3 160 266.3 160 266.3C160 202.29 160 166.73 160 159.62C160 159.62 160 159.62 160 159.62C224.01 159.62 259.58 159.62 266.69 159.62Z" id="a7GbuDvXR"></path><path d="M373.38 159.62C373.38 159.62 373.38 159.62 373.38 159.62C373.38 223.63 373.38 259.19 373.38 266.3C373.38 266.3 373.38 266.3 373.38 266.3C309.36 266.3 273.8 266.3 266.69 266.3C266.69 266.3 266.69 266.3 266.69 266.3C266.69 202.29 266.69 166.73 266.69 159.62C266.69 159.62 266.69 159.62 266.69 159.62C330.7 159.62 366.26 159.62 373.38 159.62Z" id="aYtkZ9BiU"></path><path d="M480 159.62C480 159.62 480 159.62 480 159.62C480 223.63 480 259.19 480 266.3C480 266.3 480 266.3 480 266.3C415.99 266.3 380.42 266.3 373.31 266.3C373.31 266.3 373.31 266.3 373.31 266.3C373.31 202.29 373.31 166.73 373.31 159.62C373.31 159.62 373.31 159.62 373.31 159.62C437.32 159.62 472.89 159.62 480 159.62Z" id="d1Ff43Sz7t"></path><path d="M373.38 266.3C373.38 266.3 373.38 266.3 373.38 266.3C373.38 330.32 373.38 365.88 373.38 372.99C373.38 372.99 373.38 372.99 373.38 372.99C309.36 372.99 273.8 372.99 266.69 372.99C266.69 372.99 266.69 372.99 266.69 372.99C266.69 308.98 266.69 273.42 266.69 266.3C266.69 266.3 266.69 266.3 266.69 266.3C330.7 266.3 366.26 266.3 373.38 266.3Z" id="aKTCe9pt0"></path><path d="M373.38 372.99C373.38 372.99 373.38 372.99 373.38 372.99C373.38 437 373.38 472.57 373.38 479.68C373.38 479.68 373.38 479.68 373.38 479.68C309.36 479.68 273.8 479.68 266.69 479.68C266.69 479.68 266.69 479.68 266.69 479.68C266.69 415.67 266.69 380.1 266.69 372.99C266.69 372.99 266.69 372.99 266.69 372.99C330.7 372.99 366.26 372.99 373.38 372.99Z" id="b2GuS5Hme2"></path></defs><g><g><g><use xlink:href="#b1EN8jqD6K" opacity="1" fill="#3d3d4d" fill-opacity="1"></use><g><use xlink:href="#b1EN8jqD6K" opacity="1" fill-opacity="0" stroke="#000000" stroke-width="1" stroke-opacity="0"></use></g></g><g><use xlink:href="#a7GbuDvXR" opacity="1" fill="#ffffff" fill-opacity="1"></use><g><use xlink:href="#a7GbuDvXR" opacity="1" fill-opacity="0" stroke="#000000" stroke-width="1" stroke-opacity="0"></use></g></g><g><use xlink:href="#aYtkZ9BiU" opacity="1" fill="#ffffff" fill-opacity="1"></use><g><use xlink:href="#aYtkZ9BiU" opacity="1" fill-opacity="0" stroke="#000000" stroke-width="1" stroke-opacity="0"></use></g></g><g><use xlink:href="#d1Ff43Sz7t" opacity="1" fill="#ffffff" fill-opacity="1"></use><g><use xlink:href="#d1Ff43Sz7t" opacity="1" fill-opacity="0" stroke="#000000" stroke-width="1" stroke-opacity="0"></use></g></g><g><use xlink:href="#aKTCe9pt0" opacity="1" fill="#ffffff" fill-opacity="1"></use><g><use xlink:href="#aKTCe9pt0" opacity="1" fill-opacity="0" stroke="#000000" stroke-width="1" stroke-opacity="0"></use></g></g><g><use xlink:href="#b2GuS5Hme2" opacity="1" fill="#ffffff" fill-opacity="1"></use><g><use xlink:href="#b2GuS5Hme2" opacity="1" fill-opacity="0" stroke="#000000" stroke-width="1" stroke-opacity="0"></use></g></g></g></g></svg>